<svg width="171" height="48" viewBox="0 0 171 48" fill="none" xmlns="http://www.w3.org/2000/svg">
<rect x="0.5" width="170" height="48" rx="5" fill="#212529"/>
<path d="M34.1623 30.5H41.7223V32H32.5623V18.8H34.1623V30.5ZM48.1025 32.2C47.1558 32.2 46.3092 31.9933 45.5625 31.58C44.8292 31.1667 44.2558 30.5733 43.8425 29.8C43.4292 29.0133 43.2225 28.08 43.2225 27C43.2225 25.92 43.4292 24.9933 43.8425 24.22C44.2558 23.4333 44.8225 22.8333 45.5425 22.42C46.2625 22.0067 47.0825 21.8 48.0025 21.8C48.9358 21.8 49.7292 22 50.3825 22.4C51.0492 22.8 51.5558 23.3467 51.9025 24.04C52.2492 24.72 52.4225 25.4867 52.4225 26.34C52.4225 26.5667 52.4158 26.7733 52.4025 26.96C52.3892 27.1467 52.3692 27.3133 52.3425 27.46H44.2625V26.04H51.6425L50.8225 26.2C50.8225 25.24 50.5558 24.5 50.0225 23.98C49.5025 23.46 48.8158 23.2 47.9625 23.2C47.3092 23.2 46.7425 23.3533 46.2625 23.66C45.7958 23.9533 45.4292 24.3867 45.1625 24.96C44.9092 25.52 44.7825 26.2 44.7825 27C44.7825 27.7867 44.9158 28.4667 45.1825 29.04C45.4492 29.6133 45.8225 30.0533 46.3025 30.36C46.7958 30.6533 47.3825 30.8 48.0625 30.8C48.7958 30.8 49.3892 30.66 49.8425 30.38C50.3092 30.1 50.6825 29.72 50.9625 29.24L52.2225 29.98C51.9692 30.4333 51.6425 30.8267 51.2425 31.16C50.8558 31.4933 50.3958 31.7533 49.8625 31.94C49.3425 32.1133 48.7558 32.2 48.1025 32.2ZM61.3055 25.54C61.3055 24.7933 61.1055 24.22 60.7055 23.82C60.3055 23.4067 59.7388 23.2 59.0055 23.2C58.3121 23.2 57.7255 23.3533 57.2455 23.66C56.7655 23.9533 56.4121 24.4333 56.1855 25.1L54.8855 24.3C55.1521 23.5533 55.6455 22.9533 56.3655 22.5C57.0855 22.0333 57.9788 21.8 59.0455 21.8C59.7655 21.8 60.4188 21.9267 61.0055 22.18C61.5921 22.42 62.0521 22.7933 62.3855 23.3C62.7321 23.7933 62.9055 24.4333 62.9055 25.22V30.06C62.9055 30.54 63.1588 30.78 63.6655 30.78C63.9188 30.78 64.1655 30.7467 64.4055 30.68L64.3255 31.94C64.0588 32.0733 63.7121 32.14 63.2855 32.14C62.8988 32.14 62.5521 32.0667 62.2455 31.92C61.9388 31.7733 61.6988 31.5533 61.5255 31.26C61.3521 30.9533 61.2655 30.5733 61.2655 30.12V29.92L61.6655 29.98C61.5055 30.5 61.2321 30.9267 60.8455 31.26C60.4588 31.58 60.0255 31.82 59.5455 31.98C59.0655 32.1267 58.5921 32.2 58.1255 32.2C57.5388 32.2 56.9921 32.1 56.4855 31.9C55.9788 31.7 55.5721 31.4 55.2655 31C54.9721 30.5867 54.8255 30.08 54.8255 29.48C54.8255 28.7333 55.0721 28.12 55.5655 27.64C56.0721 27.1467 56.7721 26.8133 57.6655 26.64L61.6255 25.86V27.18L58.4055 27.84C57.7521 27.9733 57.2655 28.16 56.9455 28.4C56.6255 28.64 56.4655 28.9733 56.4655 29.4C56.4655 29.8133 56.6255 30.1533 56.9455 30.42C57.2788 30.6733 57.7455 30.8 58.3455 30.8C58.7321 30.8 59.0988 30.7533 59.4455 30.66C59.8055 30.5533 60.1255 30.4 60.4055 30.2C60.6855 29.9867 60.9055 29.7267 61.0655 29.42C61.2255 29.1 61.3055 28.7267 61.3055 28.3V25.54ZM66.7936 32V22H68.0936L68.3136 23.64C68.5936 23.0267 69.0003 22.5667 69.5336 22.26C70.0803 21.9533 70.7403 21.8 71.5136 21.8C71.6869 21.8 71.8736 21.8133 72.0736 21.84C72.2869 21.8667 72.4669 21.92 72.6136 22L72.3336 23.46C72.1869 23.4067 72.0269 23.3667 71.8536 23.34C71.6803 23.3133 71.4336 23.3 71.1136 23.3C70.7003 23.3 70.2803 23.42 69.8536 23.66C69.4403 23.9 69.0936 24.2667 68.8136 24.76C68.5336 25.24 68.3936 25.8533 68.3936 26.6V32H66.7936ZM74.9577 32V22H76.3577L76.4977 24.24L76.2377 24.02C76.451 23.4867 76.7377 23.06 77.0977 22.74C77.4577 22.4067 77.871 22.1667 78.3377 22.02C78.8177 21.8733 79.311 21.8 79.8177 21.8C80.5377 21.8 81.191 21.94 81.7777 22.22C82.3643 22.4867 82.831 22.9 83.1777 23.46C83.5377 24.02 83.7177 24.7333 83.7177 25.6V32H82.1177V26.16C82.1177 25.0533 81.8777 24.2867 81.3977 23.86C80.931 23.42 80.351 23.2 79.6577 23.2C79.1777 23.2 78.6977 23.3133 78.2177 23.54C77.7377 23.7667 77.3377 24.1333 77.0177 24.64C76.711 25.1467 76.5577 25.8267 76.5577 26.68V32H74.9577ZM107.217 18.8V32H105.697V23.7L105.877 20.22H105.857L101.517 32H100.157L95.8169 20.22H95.7969L95.9769 23.7V32H94.4569V18.8H96.9169L99.8169 26.82L100.817 30.12H100.857L101.877 26.84L104.757 18.8H107.217ZM115.211 21.8C116.158 21.8 116.991 22.0067 117.711 22.42C118.444 22.8333 119.018 23.4333 119.431 24.22C119.844 24.9933 120.051 25.92 120.051 27C120.051 28.08 119.844 29.0133 119.431 29.8C119.018 30.5733 118.444 31.1667 117.711 31.58C116.991 31.9933 116.158 32.2 115.211 32.2C114.278 32.2 113.444 31.9933 112.711 31.58C111.978 31.1667 111.404 30.5733 110.991 29.8C110.578 29.0133 110.371 28.08 110.371 27C110.371 25.92 110.578 24.9933 110.991 24.22C111.404 23.4333 111.978 22.8333 112.711 22.42C113.444 22.0067 114.278 21.8 115.211 21.8ZM115.211 23.18C114.531 23.18 113.951 23.3333 113.471 23.64C112.991 23.9467 112.618 24.3867 112.351 24.96C112.098 25.52 111.971 26.2 111.971 27C111.971 27.7867 112.098 28.4667 112.351 29.04C112.618 29.6133 112.991 30.0533 113.471 30.36C113.951 30.6667 114.531 30.82 115.211 30.82C115.891 30.82 116.471 30.6667 116.951 30.36C117.431 30.0533 117.798 29.6133 118.051 29.04C118.318 28.4667 118.451 27.7867 118.451 27C118.451 26.2 118.318 25.52 118.051 24.96C117.798 24.3867 117.431 23.9467 116.951 23.64C116.471 23.3333 115.891 23.18 115.211 23.18ZM123.063 32V22H124.363L124.583 23.64C124.863 23.0267 125.27 22.5667 125.803 22.26C126.35 21.9533 127.01 21.8 127.783 21.8C127.956 21.8 128.143 21.8133 128.343 21.84C128.556 21.8667 128.736 21.92 128.883 22L128.603 23.46C128.456 23.4067 128.296 23.3667 128.123 23.34C127.95 23.3133 127.703 23.3 127.383 23.3C126.97 23.3 126.55 23.42 126.123 23.66C125.71 23.9 125.363 24.2667 125.083 24.76C124.803 25.24 124.663 25.8533 124.663 26.6V32H123.063ZM135.095 32.2C134.148 32.2 133.301 31.9933 132.555 31.58C131.821 31.1667 131.248 30.5733 130.835 29.8C130.421 29.0133 130.215 28.08 130.215 27C130.215 25.92 130.421 24.9933 130.835 24.22C131.248 23.4333 131.815 22.8333 132.535 22.42C133.255 22.0067 134.075 21.8 134.995 21.8C135.928 21.8 136.721 22 137.375 22.4C138.041 22.8 138.548 23.3467 138.895 24.04C139.241 24.72 139.415 25.4867 139.415 26.34C139.415 26.5667 139.408 26.7733 139.395 26.96C139.381 27.1467 139.361 27.3133 139.335 27.46H131.255V26.04H138.635L137.815 26.2C137.815 25.24 137.548 24.5 137.015 23.98C136.495 23.46 135.808 23.2 134.955 23.2C134.301 23.2 133.735 23.3533 133.255 23.66C132.788 23.9533 132.421 24.3867 132.155 24.96C131.901 25.52 131.775 26.2 131.775 27C131.775 27.7867 131.908 28.4667 132.175 29.04C132.441 29.6133 132.815 30.0533 133.295 30.36C133.788 30.6533 134.375 30.8 135.055 30.8C135.788 30.8 136.381 30.66 136.835 30.38C137.301 30.1 137.675 29.72 137.955 29.24L139.215 29.98C138.961 30.4333 138.635 30.8267 138.235 31.16C137.848 31.4933 137.388 31.7533 136.855 31.94C136.335 32.1133 135.748 32.2 135.095 32.2Z" fill="white"/>
</svg>
